HIERARCHY
ROOT Hips
{
	OFFSET 0.00 0.00 0.00
	CHANNELS 6 Xposition Yposition Zposition Xrotation Yrotation Zrotation
	JOINT Spine
	{
		OFFSET 0.00000 1.15266 1.72900
		CHANNELS 3 Xrotation Yrotation Zrotation
		JOINT Spine1
		{
			OFFSET 0.00000 0.40032 2.27031
			CHANNELS 3 Xrotation Yrotation Zrotation
			JOINT Spine2
			{
				OFFSET 0.00000 0.20092 2.29656
				CHANNELS 3 Xrotation Yrotation Zrotation
				JOINT Spine3
				{
					OFFSET 0.00000 0.00000 2.30533
					CHANNELS 3 Xrotation Yrotation Zrotation
					JOINT Neck
					{
						OFFSET 0.00000 -0.86449 6.05149
						CHANNELS 3 Xrotation Yrotation Zrotation
						JOINT Head
						{
							OFFSET 0.00000 -0.55043 3.12167
							CHANNELS 3 Xrotation Yrotation Zrotation
							End Site
							{
								OFFSET 0.00000 0.00000 3.73175
							}
						}
					}
					JOINT RightShoulder
					{
						OFFSET -0.78828 -1.31380 4.25672
						CHANNELS 3 Xrotation Yrotation Zrotation
						JOINT RightArm
						{
							OFFSET -3.91513 0.00000 0.00000
							CHANNELS 3 Xrotation Yrotation Zrotation
							JOINT RightForeArm
							{
								OFFSET -6.91491 0.00000 0.00000
								CHANNELS 3 Xrotation Yrotation Zrotation
								JOINT RightHand
								{
									OFFSET -6.09622 0.00000 0.00000
									CHANNELS 3 Xrotation Yrotation Zrotation
									JOINT RightHandEnd
									{
										OFFSET -1.74995 0.00000 0.00000
										CHANNELS 3 Xrotation Yrotation Zrotation
										End Site
										{
											OFFSET -1.74995 0.00000 0.00000
										}
									}
									JOINT RightHandThumb1
									{
										OFFSET -0.69998 -1.16663 -0.46665
										CHANNELS 3 Yrotation Xrotation Zrotation
										End Site
										{
											OFFSET -1.69032 -0.45292 0.00000
										}
									}
								}
							}
						}
					}
					JOINT LeftShoulder
					{
						OFFSET 0.78828 -1.31380 4.25672
						CHANNELS 3 Xrotation Yrotation Zrotation
						JOINT LeftArm
						{
							OFFSET 3.91513 0.00000 0.00000
							CHANNELS 3 Xrotation Yrotation Zrotation
							JOINT LeftForeArm
							{
								OFFSET 6.91491 0.00000 0.00000
								CHANNELS 3 Xrotation Yrotation Zrotation
								JOINT LeftHand
								{
									OFFSET 6.09622 0.00000 0.00000
									CHANNELS 3 Xrotation Yrotation Zrotation
									JOINT LeftHandEnd
									{
										OFFSET 1.74995 0.00000 0.00000
										CHANNELS 3 Xrotation Yrotation Zrotation
										End Site
										{
											OFFSET 1.74995 0.00000 0.00000
										}
									}
									JOINT LeftHandThumb1
									{
										OFFSET 0.69998 -1.16663 -0.46665
										CHANNELS 3 Yrotation Xrotation Zrotation
										End Site
										{
											OFFSET 1.69032 -0.45292 0.00000
										}
									}
								}
							}
						}
					}
				}
			}
		}
	}
	JOINT RightUpLeg
	{
		OFFSET -2.33857 0.00000 -0.68318
		CHANNELS 3 Xrotation Yrotation Zrotation
		JOINT RightLeg
		{
			OFFSET 0.00000 0.00000 -10.74496
			CHANNELS 3 Xrotation Yrotation Zrotation
			JOINT RightFoot
			{
				OFFSET 0.00000 0.00000 -10.93085
				CHANNELS 3 Xrotation Yrotation Zrotation
				JOINT RightToeBase
				{
					OFFSET 0.00000 -4.08727 -1.48765
					CHANNELS 3 Xrotation Yrotation Zrotation
					End Site
					{
						OFFSET 0.00000 -1.89187 -0.00000
					}
				}
			}
		}
	}
	JOINT LeftUpLeg
	{
		OFFSET 2.33857 0.00000 -0.68318
		CHANNELS 3 Xrotation Yrotation Zrotation
		JOINT LeftLeg
		{
			OFFSET 0.00000 0.00000 -10.74496
			CHANNELS 3 Xrotation Yrotation Zrotation
			JOINT LeftFoot
			{
				OFFSET 0.00000 0.00000 -10.93085
				CHANNELS 3 Xrotation Yrotation Zrotation
				JOINT LeftToeBase
				{
					OFFSET 0.00000 -4.08727 -1.48765
					CHANNELS 3 Xrotation Yrotation Zrotation
					End Site
					{
						OFFSET 0.00000 -1.89187 -0.00000
					}
				}
			}
		}
	}
}
MOTION
Frames: 7
Frame Time:	0.02
 -4.9913 4.7423 22.6207 -0.0668 -1.0723 -167.3987 12.1052 2.7904 -1.2600 2.0233 1.1241 -0.7467 8.6009 -2.8736 -12.4024 1.7899 -1.5487 -1.6557 -8.2176 -4.8155 -4.3126 -11.1884 0.3713 3.4355 5.9679 -12.2486 -3.9793 -8.9966 -61.7442 -7.0842 -0.0000 0.0001 49.6235 24.6867 -13.1279 3.9839 -0.0000 -0.0000 -0.0000 -0.0000 -0.0000 0.0000 7.7361 -6.1604 -7.5361 -35.4026 58.6412 9.2362 -0.0000 -0.0001 -75.5543 -53.4776 -46.8741 57.0489 0.0000 -0.0000 0.0000 -0.0000 0.0000 -0.0000 -6.6007 11.7489 31.7867 38.8990 0.0000 0.0000 -27.2977 -12.9168 19.3447 -3.6477 0.0000 -0.0000 -34.4699 -23.6923 20.1029 52.5624 0.0000 0.0000 -7.4068 5.3202 -31.6185 -1.2298 0.0000 -0.0000
 -4.8407 4.8404 22.8242 0.0769 -1.7197 -160.4747 13.4228 2.6658 -1.4012 2.6144 1.5230 -1.1743 5.0995 -4.9027 -21.2289 1.5941 -2.1218 -2.4991 -6.0887 -7.0209 -12.0179 -19.8664 1.2949 -3.3317 8.0820 -12.6159 -9.5380 -23.1222 -55.8055 -24.0550 -0.0000 0.0000 40.5605 20.7325 -10.5729 -1.3003 -0.0000 0.0000 0.0000 0.0000 -0.0000 -0.0000 5.2209 -9.6602 -11.3662 -58.4206 49.2551 36.1398 -0.0000 -0.0001 -63.1695 -58.9713 -51.7363 52.4156 -0.0000 0.0000 0.0000 -0.0000 -0.0000 -0.0000 -2.1236 4.7828 42.7301 41.1778 0.0000 0.0000 -27.8355 -7.3912 1.6631 -3.1210 0.0000 -0.0000 -35.1771 -20.1956 14.6615 48.2292 0.0000 0.0000 -4.8357 6.1063 -33.3586 -2.3393 0.0000 -0.0000
 -4.7764 4.8592 23.2527 0.7445 -1.1822 -158.4288 14.6172 2.9251 -1.5152 3.2182 1.8237 -1.4267 2.2306 -4.8123 -27.2875 1.5320 -2.8811 -2.3444 -3.2504 -10.1980 -16.1907 -20.2915 -1.0397 -9.1039 12.0971 -11.3302 -13.1882 -21.8688 -42.7391 -25.9260 -0.0000 0.0000 38.9601 32.3738 0.4712 -2.6664 -0.0000 -0.0000 0.0000 -0.0000 -0.0000 0.0000 6.6365 -13.9210 -8.6835 -65.7918 40.4347 37.5814 -0.0000 -0.0000 -48.6399 -59.3004 -46.7371 42.8632 -0.0000 -0.0000 0.0000 -0.0000 -0.0000 0.0000 -2.5140 -0.1722 40.7201 47.8635 0.0000 0.0000 -22.1949 -4.7179 -8.5111 -2.5119 0.0000 -0.0000 -33.9818 -18.2230 11.0926 44.5944 0.0000 0.0000 0.7676 8.6899 -33.9291 -3.4994 0.0000 -0.0000
 -4.8166 4.6691 23.6696 2.3830 -0.6131 -162.9660 16.1174 2.5515 -1.5567 3.6121 1.7997 -1.3603 0.9815 -3.5227 -26.6383 1.1861 -3.3948 -1.5553 -1.2316 -12.0795 -13.6886 -17.2922 -5.4290 -8.4472 10.2337 -7.8165 -15.6283 -20.6834 -22.9573 -31.1358 -0.0000 0.0000 38.9637 35.2839 14.1155 0.5482 -0.0000 0.0000 -0.0000 0.0000 -0.0000 -0.0000 8.5747 -16.5457 -3.6979 -53.5204 36.4006 18.1902 -0.0000 -0.0000 -35.4010 -47.3130 -28.8150 42.9025 -0.0000 0.0000 -0.0000 -0.0000 0.0000 0.0000 -7.9635 -0.3476 22.8742 54.6770 0.0000 0.0000 -14.4982 -4.4607 -14.4952 -0.1093 0.0000 -0.0000 -32.6190 -18.5125 3.1254 44.4745 0.0000 0.0000 5.5101 14.3815 -32.3077 -3.0055 0.0000 -0.0000
 -5.0923 4.4071 23.7453 3.6324 1.3944 -173.5222 16.5180 3.1961 -1.7251 3.8699 1.6978 -0.9437 0.1978 -1.0265 -19.2939 0.1735 -2.9035 -1.1036 1.3574 -12.9198 -5.7511 -12.0299 -8.2704 -3.0836 2.1583 5.7063 -16.8218 -24.3540 -6.1423 -35.7458 0.0000 0.0000 33.6234 15.6000 19.3419 8.1822 0.0000 -0.0000 0.0000 -0.0000 -0.0000 0.0000 8.2254 -15.9819 -1.1155 -22.3142 21.9840 -8.4320 -0.0000 -0.0000 -28.9133 -18.5868 -13.5968 40.4587 -0.0000 -0.0000 0.0000 -0.0000 -0.0000 0.0000 -13.6206 6.3107 3.6279 59.3215 0.0000 0.0000 -12.5673 -5.5896 -21.4527 2.5627 0.0000 0.0000 -28.2873 -17.9819 -7.6938 44.7383 0.0000 0.0000 7.1304 20.3694 -32.7906 -3.5447 0.0000 -0.0000
 -5.5043 4.3021 23.4518 4.3551 3.3121 171.3933 14.8639 3.6455 -1.5662 3.7986 1.7752 -0.2755 -0.8634 1.8957 -7.8601 -0.7718 -1.2844 -1.0304 4.5778 -13.2932 4.3353 -3.8016 -8.3795 0.9021 -6.9502 21.4677 -11.6392 -43.3020 11.3433 -31.3136 0.0000 0.0000 34.8422 -0.7531 37.6511 0.8017 -0.0000 0.0000 -0.0000 0.0000 -0.0000 -0.0000 0.9152 -14.9247 -3.4829 -4.4083 2.1907 -11.7395 -0.0000 -0.0000 -27.7015 -5.6224 -26.2496 29.7734 0.0000 0.0000 0.0000 0.0000 0.0000 0.0000 -19.0220 13.4002 -9.2759 61.7261 0.0000 0.0000 -16.1412 -6.5832 -28.6647 2.5100 0.0000 0.0000 -18.7620 -17.7408 -15.2142 40.7729 0.0000 0.0000 3.0842 19.8594 -38.0494 -6.8542 0.0000 -0.0000
 -5.9595 4.3945 22.9553 4.9609 5.2952 153.8587 11.7750 3.4681 -1.1527 3.2726 1.6278 0.3739 -1.8285 4.8706 3.8752 -0.6678 0.3676 -1.3617 7.2245 -10.4982 12.0319 3.9921 -8.0147 2.1680 -12.7522 29.7317 -4.0890 -68.6873 16.2893 -15.3741 -0.0000 0.0001 49.1414 -15.8291 42.8579 15.5131 0.0000 0.0000 0.0000 0.0000 0.0000 0.0000 -9.1716 -13.8214 -5.5852 -1.9358 -9.2621 -11.0697 -0.0000 -0.0000 -24.3495 -0.0589 -48.6379 27.9823 -0.0000 -0.0000 -0.0000 0.0000 -0.0000 -0.0000 -25.5070 19.2863 -16.2907 63.7597 0.0000 0.0000 -21.3644 -5.0912 -29.5031 2.9767 0.0000 0.0000 -6.0250 -15.4203 -19.3620 32.6017 0.0000 0.0000 -8.6469 15.2056 -39.1171 -10.5730 0.0000 -0.0000
